<?xml version="1.0" encoding="UTF-8" standalone="no"?>
<svg width="133px" height="153px" viewBox="0 0 133 153" version="1.1" xmlns="http://www.w3.org/2000/svg" xmlns:xlink="http://www.w3.org/1999/xlink" xmlns:sketch="http://www.bohemiancoding.com/sketch/ns">
    <!-- Generator: Sketch 3.2.2 (9983) - http://www.bohemiancoding.com/sketch -->
    <title>Polygon 22</title>
    <desc>Created with Sketch.</desc>
    <defs></defs>
    <g id="Page-1" stroke="none" stroke-width="1" fill="none" fill-rule="evenodd" sketch:type="MSPage">
        <path d="M79.4051714,7.594 L66.2519776,0 L53.0987838,7.594 L79.4051714,7.594 L79.4051714,7.594 Z M114.851344,28.0588572 L132.502921,38.25 L132.502921,69.8491769 C126.630592,55.9592795 120.748406,42.0526004 114.851344,28.0588572 L114.851344,28.0588572 Z M93.673806,137.168 L66.2519776,153 L56.0346142,147.101002 L59.4835733,137.168 L93.673806,137.168 L93.673806,137.168 Z M12.7245853,122.095946 L0.00103421137,114.75 L0.00103421137,38.25 L49.429648,9.71237654 L54.9515733,23.25 L12.7245853,122.095946 L12.7245853,122.095946 Z M77.1995733,86.904 L80.9075733,75.162 L84.8215733,86.904 L89.5595733,99.882 L72.6675733,99.882 L77.1995733,86.904 Z" id="Polygon-22" fill="#344784" sketch:type="MSShapeGroup"></path>
    </g>
</svg>