<?xml version="1.0" encoding="UTF-8" standalone="no"?>
<svg width="137px" height="159px" viewBox="0 0 137 159" version="1.1" xmlns="http://www.w3.org/2000/svg" xmlns:xlink="http://www.w3.org/1999/xlink" xmlns:sketch="http://www.bohemiancoding.com/sketch/ns">
    <!-- Generator: Sketch 3.2.2 (9983) - http://www.bohemiancoding.com/sketch -->
    <title>A 5</title>
    <desc>Created with Sketch.</desc>
    <defs></defs>
    <g id="Page-1" stroke="none" stroke-width="1" fill="none" fill-rule="evenodd" sketch:type="MSPage">
        <path d="M42.203,113.184 C42.203,116.796 44.783,119.548 48.481,119.548 C51.749,119.548 55.189,117.226 57.683,115.334 C61.553,112.496 65.853,108.454 70.067,103.81 C76.689,103.122 82.623,102.692 88.471,102.864 L87.697,106.648 C87.009,110.002 86.923,119.032 97.673,119.032 C105.241,119.032 113.411,115.85 120.635,109.658 L120.893,108.11 C117.969,110.088 114.185,112.152 110.745,112.152 C108.767,112.152 107.305,111.034 107.993,107.852 L114.013,79.042 C116.507,66.916 104.725,64.164 92.599,69.066 C86.837,81.966 68.691,105.788 56.393,114.646 C56.909,113.528 57.339,112.496 57.339,111.12 C57.339,107.508 54.759,104.67 51.061,104.67 C46.503,104.67 42.203,108.626 42.203,113.184 Z M88.815,101.402 C83.053,101.316 77.377,101.574 71.529,102.176 C80.559,91.942 89.331,79.3 93.459,70.614 C94.577,70.786 95.179,71.732 94.749,73.796 L88.815,101.402 Z M68.5,0.690598923 L67.5,1.26794919 L1.24905661,39.5179492 L0.24905661,40.0952995 L0.24905661,41.25 L0.24905661,117.75 L0.24905661,118.904701 L1.24905661,119.482051 L67.5,157.732051 L68.5,158.309401 L69.5,157.732051 L135.750943,119.482051 L136.750943,118.904701 L136.750943,117.75 L136.750943,41.25 L136.750943,40.0952995 L135.750943,39.5179492 L69.5,1.26794919 L68.5,0.690598923 Z" id="A-5" fill="#3D3936" sketch:type="MSShapeGroup"></path>
    </g>
</svg>