<?xml version="1.0" encoding="UTF-8" standalone="no"?>
<svg width="91px" height="90px" viewBox="0 0 91 90" version="1.1" xmlns="http://www.w3.org/2000/svg" xmlns:xlink="http://www.w3.org/1999/xlink" xmlns:sketch="http://www.bohemiancoding.com/sketch/ns">
    <!-- Generator: Sketch 3.1.1 (8761) - http://www.bohemiancoding.com/sketch -->
    <title>a + AIZLEWOOD + J 3</title>
    <desc>Created with Sketch.</desc>
    <defs></defs>
    <g id="Page-1" stroke="none" stroke-width="1" fill="none" fill-rule="evenodd" sketch:type="MSPage">
        <g id="Desktop-HD-3" sketch:type="MSArtboardGroup" transform="translate(-113.000000, -132.000000)" fill="#EB2068">
            <g id="a-+-AIZLEWOOD-+-J-3" sketch:type="MSLayerGroup" transform="translate(111.000000, 133.000000)">
                <text id="AIZLEWOOD" sketch:type="MSTextLayer" font-family="Apercu Pro" font-size="11.3333333" font-weight="bold" sketch:alignment="middle" letter-spacing="3.35160002">
                    <tspan x="2.15746659" y="87.1779817">AIZLEWOOD</tspan>
                </text>
                <path d="M58.5901391,34.2444462 L58.5901391,50.1174062 C58.5901391,54.3636758 57.0678593,58.3571912 54.2135848,61.33969 C51.4068815,64.3727397 47.6487534,65.9903662 43.6527691,65.9903662 C39.6567847,65.9903662 35.8986566,64.3727397 33.0919533,61.33969 C30.66582,58.7615978 29.1911115,55.475794 28.8105415,51.937236 L37.3257939,51.937236 L37.3257939,34.2444462 L58.5901391,34.2444462 Z M63.2181921,31.4793643 C63.2181921,30.7016554 62.5874257,30.0711978 61.8221593,30.0711978 L34.4143931,30.0711978 C33.6433855,30.0711978 33.0183604,30.7072019 33.0183604,31.4768 L33.0183604,47.7810113 C33.0183604,48.5573039 32.3992896,49.1866134 31.6214228,49.1866134 L23.1218554,49.1866134 C23.1218554,59.7273998 32.617397,70.1225448 43.1700238,70.1225448 C53.7226505,70.1225448 63.2181921,60.6376576 63.2181921,50.0968713 L63.2181921,31.4793643 Z" id="J" sketch:type="MSShapeGroup"></path>
                <path d="M47.6475464,7.68155967 L79.0608719,64.5360176 L16.3308773,64.5360176 L47.6475464,7.68155967 Z M83.9655018,70.2359244 C85.8951968,70.2359244 86.6997121,68.858635 85.7677968,67.1693782 L49.3358933,1.13028023 C48.4015783,-0.563326513 46.8863283,-0.558976662 45.9568336,1.13028023 L9.61955831,67.1693782 C8.68767014,68.8629849 9.50293662,70.2359244 11.4262474,70.2359244 L83.9655018,70.2359244 Z" id="a" sketch:type="MSShapeGroup"></path>
            </g>
        </g>
    </g>
</svg>