<?xml version="1.0" encoding="UTF-8" standalone="no"?>
<svg width="133px" height="153px" viewBox="0 0 133 153" version="1.1" xmlns="http://www.w3.org/2000/svg" xmlns:xlink="http://www.w3.org/1999/xlink" xmlns:sketch="http://www.bohemiancoding.com/sketch/ns">
    <!-- Generator: Sketch 3.4.2 (15855) - http://www.bohemiancoding.com/sketch -->
    <title>logo2</title>
    <desc>Created with Sketch.</desc>
    <defs></defs>
    <g id="Page-1" stroke="none" stroke-width="1" fill="none" fill-rule="evenodd" sketch:type="MSPage">
        <g id="logo2" sketch:type="MSLayerGroup" fill="#FFFFFF">
            <path d="M79.405,7.594 L66.252,0 L53.1,7.594 L79.405,7.594 L79.405,7.594 Z M114.85,28.06 L132.503,38.25 L132.503,69.85 C126.631,55.96 120.748,42.053 114.851,28.06 L114.85,28.06 Z M93.675,137.167 L66.252,153 L56.035,147.1 L59.485,137.168 L93.675,137.168 L93.675,137.167 Z M12.725,122.095 L0.002,114.75 L0.002,38.25 L49.43,9.712 L54.952,23.25 L12.725,122.096 L12.725,122.095 Z M77.2,86.904 L80.908,75.162 L84.822,86.904 L89.56,99.882 L72.668,99.882 L77.2,86.904 L77.2,86.904 Z" id="Shape" sketch:type="MSShapeGroup"></path>
        </g>
    </g>
</svg>